<?xml version="1.0" standalone="no"?>
<!DOCTYPE svg PUBLIC "-//W3C//DTD SVG 20010904//EN"
 "http://www.w3.org/TR/2001/REC-SVG-20010904/DTD/svg10.dtd">
<svg version="1.0" xmlns="http://www.w3.org/2000/svg"
 width="300.000000pt" height="111.000000pt" viewBox="0 0 300.000000 111.000000"
 preserveAspectRatio="xMidYMid meet">

<g transform="translate(0.000000,111.000000) scale(0.100000,-0.100000)"
fill="#000000" stroke="none">
<path d="M10 555 l0 -545 500 0 500 0 0 545 0 545 -500 0 -500 0 0 -545z m950
5 l0 -490 -450 0 -450 0 0 490 0 490 450 0 450 0 0 -490z"/>
<path d="M655 879 c-59 -13 -121 -18 -178 -17 -86 3 -88 2 -94 -21 -4 -18 0
-29 18 -44 33 -26 123 -19 249 22 52 17 96 29 97 27 6 -5 -68 -80 -236 -237
-90 -85 -190 -185 -223 -224 -69 -82 -72 -106 -18 -143 39 -27 62 -26 215 2
44 9 108 15 142 16 34 0 64 4 68 9 13 22 -70 33 -203 29 l-135 -5 70 66 c38
36 135 128 216 204 161 152 201 205 191 256 -7 31 -55 82 -77 80 -7 -1 -52
-10 -102 -20z"/>
<path d="M1040 550 l0 -540 930 0 930 0 0 213 0 212 -53 -3 c-41 -3 -58 1 -77
16 -28 23 -22 39 8 23 24 -13 72 -15 72 -3 0 4 -13 26 -28 49 l-28 42 -16 -27
c-31 -53 -88 -102 -117 -102 -30 0 -71 36 -71 63 0 9 11 47 25 84 13 37 23 69
21 70 -5 5 -90 -125 -115 -175 -24 -48 -43 -53 -67 -17 l-16 25 -30 -25 c-38
-32 -72 -32 -105 1 l-25 25 -27 -25 c-34 -33 -71 -33 -106 0 -24 22 -27 31
-22 65 10 75 94 178 159 194 21 5 33 1 52 -19 33 -32 36 -70 6 -61 -12 4 -31
0 -44 -8 -43 -29 -117 -167 -89 -167 15 0 58 50 93 108 17 28 35 52 39 52 3 0
17 -7 30 -16 24 -18 25 -43 3 -111 -6 -18 -7 -33 -2 -33 25 0 140 194 140 236
0 15 6 24 15 24 21 0 65 -45 65 -65 0 -10 14 -2 38 25 22 22 43 40 49 40 17 0
63 -41 63 -56 0 -7 -16 -52 -35 -98 -37 -89 -41 -106 -26 -106 17 0 111 151
111 177 0 33 51 83 84 83 l26 0 0 185 0 185 -930 0 -930 0 0 -540z m544 298
c35 -49 25 -64 -139 -223 l-155 -150 85 4 c144 6 187 -21 53 -33 -40 -3 -98
-9 -128 -12 -46 -5 -59 -3 -80 14 -23 19 -24 22 -10 47 8 15 86 96 172 180 87
84 158 155 158 158 0 3 -25 -3 -56 -13 -87 -30 -147 -36 -168 -15 -29 29 -14
40 60 42 38 1 87 6 109 11 64 16 83 14 99 -10z m145 -154 c38 -32 43 -67 8
-59 -32 8 -81 -33 -112 -96 -26 -51 -32 -79 -15 -79 12 0 96 112 105 140 8 26
30 25 55 0 24 -24 25 -35 5 -90 -30 -86 3 -59 74 60 58 96 130 158 170 145 27
-8 64 -52 58 -68 -3 -9 -14 -13 -29 -10 -17 3 -32 -5 -54 -29 -53 -55 -93
-148 -65 -148 12 0 61 63 92 117 28 49 37 52 68 19 27 -29 25 -37 -32 -151
-53 -107 -72 -132 -125 -166 -46 -29 -122 -41 -122 -19 0 6 7 10 15 10 27 0
101 78 135 142 l33 62 -28 -22 c-36 -29 -67 -28 -103 3 l-30 25 -28 -25 c-35
-32 -74 -32 -106 0 -23 23 -27 23 -38 9 -8 -8 -26 -22 -41 -29 -24 -13 -30
-12 -60 8 -27 18 -35 31 -37 59 -5 60 56 159 123 199 39 25 48 24 84 -7z"/>
<path d="M2944 709 c-3 -5 -14 -7 -25 -4 -15 5 -19 1 -19 -19 0 -14 4 -26 9
-26 5 0 7 -17 4 -39 -3 -21 -1 -41 3 -44 15 -9 76 90 69 112 -7 22 -32 35 -41
20z"/>
<path d="M2885 627 c-3 -12 -2 -34 4 -47 9 -22 10 -19 10 23 1 51 -5 61 -14
24z"/>
<path d="M2900 495 c0 -46 14 -60 25 -26 5 18 -9 71 -20 71 -3 0 -5 -20 -5
-45z"/>
</g>
</svg>
